 <svg  version="1.0" xmlns="http://www.w3.org/2000/svg"  width="300.000000pt" height="300.000000pt" viewBox="0 0 300.000000 300.000000"  preserveAspectRatio="xMidYMid meet">  <g transform="translate(0.000000,300.000000) scale(0.050000,-0.050000)" fill="#570000" stroke="none"> <path d="M3050 5616 c-160 -95 -188 -125 -189 -198 -1 -89 -1304 -806 -1384 -760 -65 37 -255 -46 -389 -170 l-66 -61 0 -401 c0 -447 -9 -418 151 -506 l83 -45 112 64 112 64 0 -92 c0 -111 -18 -112 209 15 l189 106 -41 68 c-23 38 -34 72 -24 75 9 4 323 176 697 383 l680 375 6 -86 c3 -48 10 -87 15 -87 9 0 368 199 389 215 5 4 -7 35 -26 69 -19 34 -33 64 -30 66 3 3 43 24 89 47 140 71 147 84 147 291 0 160 -5 191 -40 222 -33 30 -40 62 -40 182 0 205 -120 301 -276 220 -47 -24 -60 -24 -93 0 -64 46 -133 32 -281 -56z m530 -74 c0 -28 -232 -166 -1005 -593 -553 -305 -1077 -597 -1165 -648 l-160 -92 -6 -115 c-9 -164 -44 -121 -43 52 0 95 10 157 30 183 16 21 29 33 29 27 0 -34 957 479 2100 1127 188 106 220 115 220 59z m-337 -3 c44 -24 19 -79 -37 -79 -71 0 -116 43 -76 73 45 33 61 33 113 6z m128 -320 c13 -22 -25 -79 -53 -79 -21 0 -24 67 -5 87 20 19 43 16 58 -8z m286 -66 c-4 -3 -205 -114 -447 -247 -1039 -571 -1898 -1048 -1923 -1069 -18 -14 -27 -69 -27 -159 0 -79 -9 -138 -20 -138 -12 0 -20 70 -20 170 l0 169 85 43 c70 35 869 469 2135 1158 116 63 213 106 217 96 4 -10 4 -21 0 -23z m-577 -170 c0 -20 -461 -229 -475 -215 -9 9 430 231 460 232 8 0 15 -8 15 -17z m320 -143 c0 -27 -13 -40 -40 -40 -44 0 -45 2 -28 48 18 46 68 39 68 -8z m-20 -270 c0 -37 -11 -50 -40 -50 -70 0 -47 91 25 98 8 1 15 -20 15 -48z m-1962 -58 l49 -27 -46 -24 c-84 -45 -187 10 -106 57 44 26 45 26 103 -6z m224 -857 c-1 -8 -2 -28 -2 -43 0 -40 -59 -57 -73 -21 -13 33 29 94 58 84 10 -3 17 -13 17 -20z"/> <path d="M3750 4568 c-66 -40 -282 -158 -480 -263 -198 -105 -499 -267 -670 -360 -276 -151 -451 -249 -1130 -635 l-180 -102 -6 -114 c-9 -166 -44 -140 -44 32 l0 147 80 45 c60 33 80 57 80 94 l0 50 -95 -54 c-251 -143 -272 -377 -45 -500 l100 -54 0 -126 c0 -179 18 -212 153 -280 64 -32 120 -65 124 -74 4 -8 43 -33 87 -56 44 -23 74 -31 67 -19 -7 11 -2 21 13 22 14 0 4 13 -24 29 -56 32 -107 40 -60 10 17 -11 21 -19 10 -19 -63 0 -70 35 -11 56 34 12 58 14 53 6 -5 -9 48 -44 119 -79 153 -75 185 -183 77 -253 l-52 -35 157 -94 c86 -51 180 -109 208 -127 47 -32 55 -32 96 -3 47 33 77 27 54 -11 -8 -12 -22 -16 -32 -10 -11 6 -19 3 -19 -8 0 -11 32 -39 71 -64 77 -47 71 -49 185 56 15 14 39 25 53 25 15 0 32 14 38 30 7 17 24 30 39 30 27 0 109 76 99 92 -3 4 -4 10 -4 13 18 58 15 92 -7 84 -17 -7 -27 12 -30 56 -5 67 -67 134 -126 135 -50 0 -37 -56 16 -69 26 -7 42 -21 36 -32 -7 -10 -1 -19 14 -19 14 -1 -9 -21 -52 -45 -78 -45 -125 -133 -55 -105 72 30 91 31 47 5 -25 -15 -38 -34 -30 -42 8 -8 -2 -9 -23 -1 -25 10 -33 7 -24 -7 8 -12 3 -29 -10 -37 -14 -9 -18 -6 -9 9 19 31 2 29 -71 -9 -34 -17 -55 -22 -48 -10 7 12 2 22 -11 22 -15 0 -9 15 14 37 21 21 41 35 46 31 18 -16 82 93 82 140 0 29 11 52 25 52 17 1 15 7 -5 20 -27 17 -27 19 0 20 19 0 22 6 8 15 -43 30 -36 471 8 499 21 13 224 122 450 243 226 121 447 243 491 271 125 79 129 77 131 -63 2 -104 -3 -123 -28 -113 -16 7 -48 16 -70 21 -22 5 -3 -8 42 -27 46 -20 95 -46 110 -57 142 -110 317 -139 443 -75 49 24 57 24 67 -3 7 -17 20 -31 30 -31 22 0 15 45 -11 64 -10 7 5 24 34 38 30 13 49 31 44 40 -5 8 -1 21 10 27 10 7 15 24 9 39 -6 16 8 32 36 39 77 21 89 13 26 -18 l-60 -29 60 10 60 10 -50 -29 c-67 -40 -34 -39 43 0 33 18 65 27 71 22 5 -6 -47 -38 -117 -73 -138 -69 -173 -93 -99 -70 32 10 43 7 33 -8 -7 -12 -27 -22 -43 -22 -17 0 -25 -8 -19 -19 7 -10 -1 -26 -16 -35 -23 -13 -20 -34 19 -119 77 -168 318 -176 273 -9 -29 108 4 242 60 242 12 0 5 -14 -16 -30 -37 -29 -36 -30 21 -19 41 8 51 6 33 -7 -22 -15 -23 -40 -4 -131 13 -62 19 -121 12 -131 -20 -33 172 -65 457 -76 330 -13 330 -16 -2 176 -267 153 -376 220 -425 262 -16 14 -38 26 -50 28 -11 2 -69 31 -127 66 -78 46 -115 57 -141 44 -30 -16 -34 -9 -34 50 0 37 2 68 4 68 24 0 287 -151 287 -165 0 -9 9 -12 20 -5 11 7 20 3 20 -9 0 -11 11 -19 24 -16 13 3 25 -7 25 -22 1 -29 67 -83 100 -82 11 0 -5 14 -36 31 -31 17 -52 36 -47 41 9 9 107 -44 134 -73 6 -5 24 -13 40 -16 64 -14 525 -293 552 -335 59 -90 17 -129 -426 -394 -353 -211 -1063 -641 -1689 -1024 -127 -77 -185 -100 -270 -107 l-107 -9 -905 516 c-498 283 -1017 578 -1155 655 -383 215 -424 242 -441 287 -26 69 26 117 283 261 239 135 275 176 208 242 -10 11 -536 -296 -580 -338 -51 -49 -72 -562 -26 -622 23 -29 579 -356 606 -356 6 0 10 74 9 165 l0 165 -230 126 c-192 107 -229 134 -229 174 0 48 1 47 135 -28 74 -42 189 -106 255 -142 66 -37 541 -308 1057 -603 1171 -671 1128 -659 1452 -402 31 25 65 45 76 45 10 0 275 154 587 342 312 188 711 428 886 531 174 104 338 203 365 220 45 30 47 30 47 -18 0 -43 -76 -95 -635 -430 -1205 -723 -1495 -902 -1491 -919 5 -24 -225 -28 -286 -5 l-49 19 5 -184 6 -183 189 -129 c281 -191 158 -238 1531 586 1371 823 1342 801 1205 923 -88 79 -243 157 -227 115 9 -21 20 -83 25 -138 l9 -100 -106 -68 c-202 -131 -342 -217 -556 -342 -150 -87 -352 -211 -360 -219 -11 -12 -71 -46 -230 -130 -89 -47 -198 -116 -374 -234 -30 -21 -61 -37 -70 -37 -9 0 -75 -38 -147 -85 -73 -47 -165 -102 -205 -123 -41 -21 -74 -44 -74 -52 0 -69 -338 -65 -502 7 l-68 30 110 1 c108 2 131 15 1295 713 651 391 1194 728 1205 749 11 20 20 159 20 308 0 344 28 312 -570 658 -253 147 -483 281 -511 300 -47 31 -54 31 -115 -6 l-64 -39 0 178 0 179 135 74 c209 115 205 110 205 300 0 182 -19 218 -141 268 -53 22 -88 6 -583 -265 -289 -159 -665 -364 -836 -455 -1374 -736 -1280 -675 -1280 -822 0 -65 -9 -118 -19 -118 -64 0 -84 229 -26 295 19 22 323 195 675 385 2121 1144 1940 1036 1835 1095 l-76 42 -299 -165 c-165 -90 -761 -416 -1325 -723 l-1025 -557 0 -118 c0 -175 -48 -142 -56 38 l-6 140 1286 700 c716 390 1288 714 1292 731 7 36 -169 137 -239 137 -26 0 -101 -33 -167 -72z m39 -205 c-21 -19 -1352 -744 -1525 -832 -206 -103 -280 -116 -105 -18 54 31 93 65 86 76 -6 12 -4 14 5 7 8 -8 66 13 128 48 62 34 189 103 282 152 94 50 197 109 230 132 131 92 966 496 899 435z m799 -155 c98 -38 18 -87 -1233 -760 l-1265 -680 -6 -114 c-6 -116 -17 -133 -60 -90 -26 26 -33 232 -9 268 21 30 831 479 1087 602 202 97 1325 702 1407 759 46 32 39 30 79 15z m-388 -926 c0 -204 -6 -262 -30 -282 -32 -26 -48 495 -17 527 38 37 47 -9 47 -245z m-200 -83 l0 -241 -85 50 -85 51 -6 145 -5 146 75 43 c42 23 83 44 91 45 8 1 15 -107 15 -239z m-2292 97 c-6 -8 -73 -52 -149 -97 l-139 -81 0 -111 c0 -150 -48 -137 -55 15 -6 129 -3 135 124 214 75 46 107 56 126 40 20 -16 23 -15 15 7 -8 20 3 29 38 29 27 0 45 -7 40 -16z m2907 -264 c-19 -14 -29 -31 -22 -38 7 -7 -25 -27 -71 -45 -45 -18 -82 -41 -82 -51 0 -10 -11 -18 -24 -18 -40 0 38 67 110 95 50 20 53 24 14 18 -27 -4 -68 -15 -90 -24 -24 -9 -33 -8 -24 3 14 15 183 83 214 86 6 0 -6 -11 -25 -26z m-3096 -389 c0 -121 -3 -130 -30 -94 -41 55 -41 254 1 238 23 -8 30 -44 29 -144z m161 -32 c0 -49 -9 -94 -20 -101 -12 -8 -20 26 -20 89 0 55 9 101 20 101 11 0 20 -40 20 -89z m740 -299 c0 -213 -6 -272 -30 -292 -32 -26 -48 515 -17 547 38 38 47 -10 47 -255z m-471 185 c50 -23 69 -57 33 -57 -10 0 -35 -6 -55 -13 -33 -11 -32 -9 3 20 38 32 38 32 -17 13 -68 -24 -105 -8 -72 32 29 34 43 35 108 5z m291 -258 l0 -262 -60 43 c-126 90 -88 417 55 478 3 1 5 -116 5 -259z m560 -170 c0 -16 -143 -73 -154 -61 -6 5 20 23 57 39 75 33 97 38 97 22z"/> <path d="M4135 3919 c-63 -33 -115 -64 -115 -70 0 -5 54 18 120 51 66 33 120 65 120 70 0 14 4 15 -125 -51z"/> <path d="M3575 3619 c-85 -44 -155 -84 -155 -89 0 -6 72 26 160 70 88 44 160 85 160 90 0 14 7 17 -165 -71z"/> <path d="M3513 3046 c-7 -7 -13 -28 -13 -47 0 -19 -25 -44 -55 -57 -31 -13 -82 -46 -115 -74 l-60 -52 100 56 c135 74 287 173 250 162 -16 -5 -45 -1 -62 8 -18 9 -38 11 -45 4z"/> <path d="M3358 3025 c-2 -8 -2 -22 0 -30 1 -8 -16 -15 -38 -15 -29 0 -40 -13 -40 -50 l0 -51 80 53 c86 57 107 99 37 77 -28 -9 -38 -6 -28 9 7 12 8 22 2 22 -6 0 -12 -7 -13 -15z"/> <path d="M3664 2980 c-96 -22 -97 -33 -7 -79 105 -53 104 -53 98 29 -3 38 -9 69 -15 68 -5 -1 -40 -9 -76 -18z"/> <path d="M3187 2922 c-42 -35 -42 -35 -3 -60 49 -30 61 -20 53 45 -7 49 -8 49 -50 15z"/> <path d="M3415 2860 c-112 -71 -112 -70 -35 -110 79 -41 296 95 229 144 -53 38 -88 32 -194 -34z"/> <path d="M983 2812 c-170 -97 -169 -96 -46 -135 l96 -31 123 72 c146 85 144 81 47 134 l-77 41 -143 -81z"/> <path d="M3820 2865 c0 -53 324 -200 440 -199 50 0 77 5 60 10 -16 6 -34 16 -40 23 -17 23 -271 136 -338 150 -34 8 -67 22 -73 33 -19 30 -49 20 -49 -17z"/> <path d="M3010 2832 c-21 -15 -48 -24 -59 -20 -12 4 -34 -1 -51 -11 -55 -35 25 -94 89 -65 39 18 68 16 133 -7 46 -16 85 -29 88 -29 3 0 10 23 15 51 15 80 -138 138 -215 81z"/> <path d="M3635 2818 c-49 -28 -44 -44 24 -85 59 -34 161 -5 161 46 0 43 -131 71 -185 39z"/> <path d="M4153 2827 c-7 -8 24 -36 68 -62 94 -56 119 -48 71 24 -31 48 -108 69 -139 38z"/> <path d="M3260 2734 c0 -61 80 -103 129 -67 30 21 24 30 -48 70 l-81 46 0 -49z"/> <path d="M3511 2733 c-52 -38 51 -124 111 -92 51 27 48 48 -11 87 -60 39 -55 38 -100 5z"/> <path d="M3804 2729 c-54 -39 -55 -52 -4 -85 60 -37 182 50 127 91 -45 33 -69 32 -123 -6z"/> <path d="M1112 2645 l-139 -91 46 -37 c63 -51 79 -47 176 44 55 52 85 98 85 130 0 64 -5 62 -168 -46z"/> <path d="M2984 2703 c-62 -39 97 -105 161 -67 l56 33 -65 24 c-81 29 -118 32 -152 10z"/> <path d="M702 2646 c-101 -59 -98 -77 22 -144 104 -58 212 -19 151 55 -21 25 -19 28 17 19 50 -13 131 37 86 53 -194 71 -187 70 -276 17z"/> <path d="M2762 2655 c-9 -25 -23 -67 -32 -93 l-15 -48 74 45 c40 25 78 41 83 35 6 -5 -28 -31 -76 -57 -157 -87 -44 -255 115 -171 l57 29 -64 33 c-35 18 -64 37 -64 41 0 15 142 95 152 86 5 -6 -18 -28 -53 -49 l-62 -40 60 -25 c52 -21 69 -20 122 11 60 36 80 68 42 68 -10 0 -78 41 -150 90 -150 103 -166 107 -189 45z"/> <path d="M3973 2674 c-33 -23 -32 -28 17 -74 l51 -48 72 38 72 39 -78 34 c-96 42 -92 42 -134 11z"/> <path d="M3420 2650 c-19 -23 -19 -30 -1 -30 13 0 72 -24 131 -53 l107 -52 72 44 c83 52 84 53 30 82 -33 17 -56 13 -111 -20 -63 -37 -74 -38 -101 -11 -58 58 -101 71 -127 40z"/> <path d="M3171 2621 c-45 -30 -49 -38 -23 -60 30 -24 152 25 152 61 0 31 -80 31 -129 -1z"/> <path d="M3874 2607 c-17 -17 74 -87 114 -87 44 0 40 17 -13 61 -47 39 -80 48 -101 26z"/> <path d="M4700 2602 c0 -24 74 -42 170 -40 80 1 80 1 -30 29 -133 33 -140 34 -140 11z"/> <path d="M3292 2570 c-21 -16 -48 -32 -60 -36 -12 -5 0 -26 27 -49 l49 -40 78 51 77 51 -47 26 c-59 33 -77 32 -124 -3z"/> <path d="M4024 2501 l-147 -96 122 -93 c67 -50 132 -92 144 -92 51 0 300 223 286 257 -7 18 -18 48 -23 66 -6 21 -41 36 -100 45 -127 17 -120 19 -282 -87z m204 -17 c-12 -8 -20 -32 -19 -55 3 -27 -8 -40 -32 -40 -26 0 -29 6 -13 25 31 38 -4 32 -51 -9 -26 -23 -34 -25 -23 -6 37 62 73 93 116 96 24 2 34 -3 22 -11z"/> <path d="M1185 2444 c-155 -141 -158 -122 46 -233 l170 -92 118 81 c159 107 159 105 6 193 -74 42 -144 97 -155 122 -28 64 -45 57 -185 -71z"/> <path d="M3732 2522 c-53 -58 91 -114 172 -66 30 17 49 39 43 49 -6 9 -22 7 -36 -4 -18 -15 -39 -10 -76 19 -62 49 -61 49 -103 2z"/> <path d="M4461 2519 c17 -33 28 -37 50 -18 36 29 19 59 -33 59 -34 0 -36 -6 -17 -41z"/> <path d="M3413 2485 l-76 -53 73 -37 73 -37 68 52 c77 58 85 81 34 95 -19 6 -48 15 -65 22 -16 6 -64 -13 -107 -42z"/> <path d="M891 2477 l-54 -42 65 -39 64 -39 47 47 47 47 -57 34 c-56 33 -60 33 -112 -8z"/> <path d="M4588 2450 c-29 -39 -50 -73 -46 -76 110 -75 177 -108 182 -92 4 12 45 4 103 -21 109 -47 120 -49 103 -21 -7 11 0 15 15 9 14 -5 44 3 66 19 38 29 38 29 -6 46 -43 16 -44 17 -5 41 31 20 37 19 28 -3 -16 -42 30 -60 68 -26 19 16 54 35 79 43 33 10 45 29 45 70 l0 57 -235 -3 c-129 -2 -259 4 -289 12 -46 13 -61 5 -108 -55z"/> <path d="M5315 2506 c-39 -6 -55 -20 -55 -48 0 -39 2 -39 60 -5 33 20 60 43 60 51 0 9 -2 15 -5 13 -3 -2 -30 -7 -60 -11z"/> <path d="M3084 2437 l-66 -42 56 -35 c99 -61 211 29 115 92 -33 22 -49 20 -105 -15z"/> <path d="M3583 2401 l-67 -58 62 -32 c66 -34 201 22 171 70 -6 10 3 13 20 7 52 -20 34 24 -20 49 -72 33 -90 29 -166 -36z"/> <path d="M2925 2338 c-58 -38 -66 -38 -124 -9 -33 18 -61 27 -61 22 0 -6 47 -33 105 -62 58 -28 88 -37 66 -20 -48 39 -26 40 46 3 48 -25 60 -25 99 5 l45 34 -56 33 c-54 32 -60 31 -120 -6z"/> <path d="M3223 2343 l-48 -37 72 -44 c70 -43 74 -44 132 -10 l59 36 -74 45 c-89 55 -83 55 -141 10z"/> <path d="M3743 2311 l-67 -48 49 -32 c27 -17 59 -66 72 -109 33 -112 87 -119 207 -27 119 91 120 81 -25 181 -141 97 -147 98 -236 35z"/> <path d="M4446 2317 l-43 -43 66 -45 c36 -24 105 -68 154 -96 l88 -52 58 46 c49 40 53 48 23 59 -23 9 -30 6 -22 -11 7 -14 1 -11 -14 6 -25 30 -241 179 -259 179 -4 0 -27 -19 -51 -43z"/> <path d="M1655 2246 c-57 -56 202 -202 274 -155 63 41 56 52 -77 128 -123 70 -150 74 -197 27z"/> <path d="M3059 2243 l-46 -37 91 -35 c143 -54 235 5 114 74 -77 44 -103 44 -159 -2z"/> <path d="M3415 2245 c-31 -19 -51 -46 -46 -61 6 -15 1 -20 -10 -13 -27 17 -133 -27 -146 -60 -6 -16 6 -23 37 -20 25 3 86 -4 136 -14 82 -18 99 -14 181 37 l92 57 -90 55 c-50 30 -93 54 -95 53 -2 0 -29 -15 -59 -34z"/> <path d="M4335 2231 c-32 -23 -22 -34 101 -108 141 -86 191 -100 216 -60 9 14 5 18 -9 9 -13 -8 -23 -6 -23 4 0 10 -34 41 -75 68 -181 119 -172 115 -210 87z"/> <path d="M1495 2143 c-73 -44 -74 -42 82 -127 l137 -75 63 47 c71 52 71 52 -81 139 -106 61 -125 62 -201 16z"/> <path d="M2890 2140 c7 -11 -2 -26 -19 -33 -29 -11 -29 -14 1 -36 19 -14 28 -35 20 -48 -8 -13 -4 -23 8 -23 12 0 17 -9 10 -20 -7 -12 -2 -19 11 -15 13 3 27 -8 31 -25 4 -16 17 -76 30 -132 l22 -102 193 -21 193 -20 125 101 c69 55 125 104 125 107 0 17 -205 107 -244 108 -25 0 -95 18 -156 40 -60 22 -125 44 -144 48 -18 5 -51 18 -73 30 -77 40 -146 62 -133 41z m259 -138 c6 -11 -2 -32 -18 -48 -26 -26 -24 -34 13 -67 24 -20 36 -26 28 -12 -8 14 -5 25 7 25 11 0 21 10 21 22 0 16 -9 15 -30 -2 -16 -14 -30 -17 -30 -7 0 9 17 28 38 41 34 21 37 18 34 -35 -5 -67 -4 -67 51 -37 36 19 38 17 18 -21 -17 -31 -31 -37 -57 -24 -32 17 -63 17 -117 0 -13 -4 -23 2 -23 13 0 11 10 17 21 14 12 -4 10 8 -4 25 -21 25 -33 27 -59 7 -27 -20 -28 -20 -7 4 14 15 25 36 25 45 0 10 -11 12 -25 4 -14 -7 -2 6 25 29 56 46 72 50 89 24z"/> <path d="M3585 2094 c-81 -55 -81 -59 7 -101 59 -28 78 -30 105 -9 18 13 36 26 39 28 12 7 -57 128 -72 127 -7 -1 -43 -21 -79 -45z"/> <path d="M4172 2098 c-65 -51 -57 -65 84 -135 122 -59 128 -60 203 -29 47 19 -20 81 -212 192 -12 8 -46 -5 -75 -28z"/> <path d="M1080 1874 l0 -168 125 -68 c69 -37 132 -71 140 -75 27 -12 17 310 -10 331 -14 11 -77 49 -140 84 l-115 65 0 -169z"/> <path d="M1800 1961 c-27 -21 -45 -42 -40 -46 6 -5 60 -37 121 -71 l111 -62 58 46 58 47 -99 62 c-115 73 -142 76 -209 24z"/> <path d="M4015 1972 c-19 -14 -35 -36 -35 -48 0 -12 -18 -34 -40 -50 -40 -28 -5 -249 36 -230 40 18 323 207 323 216 0 16 -201 140 -226 139 -13 0 -39 -12 -58 -27z"/> <path d="M2786 1833 l-44 -47 70 -33 c90 -43 88 -43 67 30 -10 34 -13 70 -7 80 23 37 -45 14 -86 -30z"/> <path d="M1380 1700 c0 -143 4 -162 45 -187 25 -15 187 -109 360 -209 l315 -181 0 167 0 166 -349 202 c-192 111 -354 202 -360 202 -6 0 -11 -72 -11 -160z"/> <path d="M3625 1803 c-80 -69 -80 -70 4 -123 70 -43 106 -38 185 24 35 28 -7 130 -60 144 -60 16 -56 17 -129 -45z"/> <path d="M2084 1809 c-91 -64 38 -153 138 -95 73 43 73 57 -1 95 -73 38 -82 38 -137 0z"/> <path d="M2291 1722 c-16 -27 119 -105 157 -90 46 18 40 33 -30 73 -68 39 -110 44 -127 17z"/> <path d="M2605 1705 c-56 -37 -57 -57 -3 -86 32 -17 49 -16 75 6 64 56 92 61 45 8 -67 -73 -42 -87 26 -15 55 57 55 58 14 71 -24 8 -39 20 -34 27 16 27 -79 18 -123 -11z"/> <path d="M3475 1678 c-82 -47 43 -136 134 -95 65 30 64 39 -11 82 -71 40 -76 41 -123 13z"/> <path d="M2212 1663 c-10 -16 110 -83 149 -83 37 0 18 32 -39 66 -64 38 -94 42 -110 17z"/> <path d="M3789 1650 c-39 -30 -39 -30 0 -60 49 -38 83 -28 74 22 -10 60 -32 71 -74 38z"/> <path d="M2773 1523 l-116 -118 66 -40 c242 -145 334 -185 424 -185 107 0 117 17 37 65 -39 22 -84 90 -142 214 -104 218 -115 220 -269 64z"/> <path d="M3003 1628 c5 -10 39 -81 75 -158 37 -77 69 -143 73 -147 5 -5 342 186 366 208 24 22 -135 66 -283 77 -97 8 -191 20 -208 26 -17 7 -28 4 -23 -6z"/> <path d="M3642 1567 l-47 -33 45 -34 c43 -32 50 -32 103 -2 70 39 71 49 6 79 -62 28 -51 29 -107 -10z"/> <path d="M2410 1560 c-28 -46 165 -111 209 -71 52 47 53 79 2 47 -32 -20 -53 -18 -111 10 -84 40 -84 40 -100 14z"/> <path d="M3510 1480 c-17 -28 80 -68 124 -51 34 13 34 15 -3 42 -45 34 -103 38 -121 9z"/> <path d="M3303 1361 l-127 -77 51 -34 c69 -45 367 116 301 164 -54 39 -86 32 -225 -53z"/> <path d="M2157 1259 l-7 -163 75 -39 c84 -43 580 -327 650 -372 l45 -30 0 169 0 168 -364 209 c-201 115 -371 212 -379 215 -8 4 -17 -67 -20 -157z"/> </g> </svg> 